<mxfile host="app.diagrams.net" modified="2023-08-18T11:43:59.905Z" agent="Mozilla/5.0 (Windows NT 10.0; Win64; x64) AppleWebKit/537.36 (KHTML, like Gecko) Chrome/115.0.0.0 Safari/537.36" etag="BSsxBU94_jcqKAooULmI" version="21.6.8" type="github">
  <diagram name="Page-1" id="2c0d36ab-eaac-3732-788b-9136903baeff">
    <mxGraphModel dx="4220" dy="1631" grid="1" gridSize="10" guides="1" tooltips="1" connect="1" arrows="1" fold="1" page="1" pageScale="1.5" pageWidth="1169" pageHeight="827" background="none" math="0" shadow="0">
      <root>
        <mxCell id="0" />
        <mxCell id="1" parent="0" />
        <mxCell id="YhT3vDG4iD0MvoP38tkv-375" style="edgeStyle=orthogonalEdgeStyle;rounded=0;orthogonalLoop=1;jettySize=auto;html=1;exitX=0;exitY=0.5;exitDx=0;exitDy=0;entryX=1;entryY=0.5;entryDx=0;entryDy=0;" edge="1" parent="1" source="2" target="13">
          <mxGeometry relative="1" as="geometry" />
        </mxCell>
        <mxCell id="2" value="اشخاص سیستم مدیریت محتوا" style="rounded=1;fillColor=#23445D;gradientColor=none;strokeColor=none;fontColor=#FFFFFF;fontStyle=1;fontFamily=Tahoma;fontSize=14" parent="1" vertex="1">
          <mxGeometry x="820" y="20" width="243" height="80" as="geometry" />
        </mxCell>
        <mxCell id="YhT3vDG4iD0MvoP38tkv-174" value="" style="edgeStyle=orthogonalEdgeStyle;rounded=0;orthogonalLoop=1;jettySize=auto;html=1;" edge="1" parent="1" source="4" target="YhT3vDG4iD0MvoP38tkv-173">
          <mxGeometry relative="1" as="geometry" />
        </mxCell>
        <mxCell id="YhT3vDG4iD0MvoP38tkv-376" style="edgeStyle=orthogonalEdgeStyle;rounded=0;orthogonalLoop=1;jettySize=auto;html=1;exitX=0.5;exitY=0;exitDx=0;exitDy=0;entryX=1;entryY=0.5;entryDx=0;entryDy=0;" edge="1" parent="1" source="4" target="2">
          <mxGeometry relative="1" as="geometry" />
        </mxCell>
        <mxCell id="4" value="کاربر عادی" style="rounded=1;fillColor=#23445D;gradientColor=none;strokeColor=none;fontColor=#FFFFFF;fontStyle=1;fontFamily=Tahoma;fontSize=14" parent="1" vertex="1">
          <mxGeometry x="1429.9999999999998" y="190" width="190" height="80" as="geometry" />
        </mxCell>
        <mxCell id="YhT3vDG4iD0MvoP38tkv-378" style="edgeStyle=orthogonalEdgeStyle;rounded=0;orthogonalLoop=1;jettySize=auto;html=1;exitX=0.5;exitY=0;exitDx=0;exitDy=0;entryX=0.817;entryY=0.988;entryDx=0;entryDy=0;entryPerimeter=0;" edge="1" parent="1" source="10" target="2">
          <mxGeometry relative="1" as="geometry" />
        </mxCell>
        <mxCell id="10" value="کاربر ادمین" style="rounded=1;fillColor=#23445D;gradientColor=none;strokeColor=none;fontColor=#FFFFFF;fontStyle=1;fontFamily=Tahoma;fontSize=14" parent="1" vertex="1">
          <mxGeometry x="1050" y="180" width="190" height="80" as="geometry" />
        </mxCell>
        <mxCell id="YhT3vDG4iD0MvoP38tkv-377" style="edgeStyle=orthogonalEdgeStyle;rounded=0;orthogonalLoop=1;jettySize=auto;html=1;exitX=0.5;exitY=0;exitDx=0;exitDy=0;entryX=0.153;entryY=1.005;entryDx=0;entryDy=0;entryPerimeter=0;" edge="1" parent="1" source="12" target="2">
          <mxGeometry relative="1" as="geometry" />
        </mxCell>
        <mxCell id="YhT3vDG4iD0MvoP38tkv-382" value="" style="edgeStyle=orthogonalEdgeStyle;rounded=0;orthogonalLoop=1;jettySize=auto;html=1;" edge="1" parent="1" source="12" target="YhT3vDG4iD0MvoP38tkv-381">
          <mxGeometry relative="1" as="geometry" />
        </mxCell>
        <mxCell id="12" value="ادمین کل ( مدیر )" style="rounded=1;fillColor=#23445D;gradientColor=none;strokeColor=none;fontColor=#FFFFFF;fontStyle=1;fontFamily=Tahoma;fontSize=14" parent="1" vertex="1">
          <mxGeometry x="764.9999999999999" y="180" width="190" height="80" as="geometry" />
        </mxCell>
        <mxCell id="YhT3vDG4iD0MvoP38tkv-385" value="" style="edgeStyle=orthogonalEdgeStyle;rounded=0;orthogonalLoop=1;jettySize=auto;html=1;" edge="1" parent="1" source="13" target="YhT3vDG4iD0MvoP38tkv-384">
          <mxGeometry relative="1" as="geometry" />
        </mxCell>
        <mxCell id="13" value="توسعه دهنده" style="rounded=1;fillColor=#23445D;gradientColor=none;strokeColor=none;fontColor=#FFFFFF;fontStyle=1;fontFamily=Tahoma;fontSize=14" parent="1" vertex="1">
          <mxGeometry x="380" y="180" width="190" height="80" as="geometry" />
        </mxCell>
        <mxCell id="41" value="توانایی دسترسی به تمام محتوا به سطح دسترسی که مدیر کل برای این کاربر گذاشته است&lt;br&gt;" style="rounded=1;fillColor=#23445D;gradientColor=none;strokeColor=none;fontColor=#FFFFFF;fontStyle=1;fontFamily=Tahoma;fontSize=14;whiteSpace=wrap;html=1;" parent="1" vertex="1">
          <mxGeometry x="1040" y="335.5" width="210" height="134.5" as="geometry" />
        </mxCell>
        <mxCell id="YhT3vDG4iD0MvoP38tkv-156" value="" style="edgeStyle=orthogonalEdgeStyle;rounded=0;orthogonalLoop=1;jettySize=auto;html=1;" edge="1" parent="1" source="53" target="54">
          <mxGeometry relative="1" as="geometry" />
        </mxCell>
        <mxCell id="53" value="تکمیل اطلاعات الزامی &#xa;و غیرالزامی" style="rounded=1;fillColor=#23445D;gradientColor=none;strokeColor=none;fontColor=#FFFFFF;fontStyle=1;fontFamily=Tahoma;fontSize=14" parent="1" vertex="1">
          <mxGeometry x="1530" y="515.5" width="153" height="60" as="geometry" />
        </mxCell>
        <mxCell id="YhT3vDG4iD0MvoP38tkv-158" value="" style="edgeStyle=orthogonalEdgeStyle;rounded=0;orthogonalLoop=1;jettySize=auto;html=1;" edge="1" parent="1" source="54" target="55">
          <mxGeometry relative="1" as="geometry" />
        </mxCell>
        <mxCell id="54" value="سبد خرید" style="rounded=1;fillColor=#23445D;gradientColor=none;strokeColor=none;fontColor=#FFFFFF;fontStyle=1;fontFamily=Tahoma;fontSize=14" parent="1" vertex="1">
          <mxGeometry x="1530" y="620.25" width="153" height="60" as="geometry" />
        </mxCell>
        <mxCell id="YhT3vDG4iD0MvoP38tkv-162" value="" style="edgeStyle=orthogonalEdgeStyle;rounded=0;orthogonalLoop=1;jettySize=auto;html=1;" edge="1" parent="1" source="55" target="56">
          <mxGeometry relative="1" as="geometry" />
        </mxCell>
        <mxCell id="55" value="ثبت ادرس ها" style="rounded=1;fillColor=#23445D;gradientColor=none;strokeColor=none;fontColor=#FFFFFF;fontStyle=1;fontFamily=Tahoma;fontSize=14" parent="1" vertex="1">
          <mxGeometry x="1530" y="725.5" width="153" height="60" as="geometry" />
        </mxCell>
        <mxCell id="YhT3vDG4iD0MvoP38tkv-164" value="" style="edgeStyle=orthogonalEdgeStyle;rounded=0;orthogonalLoop=1;jettySize=auto;html=1;" edge="1" parent="1" source="56" target="58">
          <mxGeometry relative="1" as="geometry" />
        </mxCell>
        <mxCell id="56" value="ثبت سفارش" style="rounded=1;fillColor=#23445D;gradientColor=none;strokeColor=none;fontColor=#FFFFFF;fontStyle=1;fontFamily=Tahoma;fontSize=14" parent="1" vertex="1">
          <mxGeometry x="1530" y="835.5" width="153" height="60" as="geometry" />
        </mxCell>
        <mxCell id="YhT3vDG4iD0MvoP38tkv-165" value="" style="edgeStyle=orthogonalEdgeStyle;rounded=0;orthogonalLoop=1;jettySize=auto;html=1;" edge="1" parent="1" source="57" target="YhT3vDG4iD0MvoP38tkv-134">
          <mxGeometry relative="1" as="geometry" />
        </mxCell>
        <mxCell id="57" value="ثبت تیکت" style="rounded=1;fillColor=#23445D;gradientColor=none;strokeColor=none;fontColor=#FFFFFF;fontStyle=1;fontFamily=Tahoma;fontSize=14" parent="1" vertex="1">
          <mxGeometry x="1530" y="930" width="153" height="60" as="geometry" />
        </mxCell>
        <mxCell id="YhT3vDG4iD0MvoP38tkv-166" value="" style="edgeStyle=orthogonalEdgeStyle;rounded=0;orthogonalLoop=1;jettySize=auto;html=1;" edge="1" parent="1" source="58" target="YhT3vDG4iD0MvoP38tkv-134">
          <mxGeometry relative="1" as="geometry" />
        </mxCell>
        <mxCell id="58" value="پرداخت" style="rounded=1;fillColor=#23445D;gradientColor=none;strokeColor=none;fontColor=#FFFFFF;fontStyle=1;fontFamily=Tahoma;fontSize=14;arcSize=23;" parent="1" vertex="1">
          <mxGeometry x="1530" y="1020" width="153" height="60" as="geometry" />
        </mxCell>
        <mxCell id="103" value="" style="edgeStyle=elbowEdgeStyle;elbow=vertical;strokeWidth=2;rounded=0" parent="1" source="10" target="41" edge="1">
          <mxGeometry x="-23" y="135.5" width="100" height="100" as="geometry">
            <mxPoint x="-23" y="235.5" as="sourcePoint" />
            <mxPoint x="77" y="135.5" as="targetPoint" />
          </mxGeometry>
        </mxCell>
        <mxCell id="106" value="" style="edgeStyle=elbowEdgeStyle;elbow=vertical;strokeWidth=2;rounded=0" parent="1" source="4" target="52" edge="1">
          <mxGeometry x="-23" y="135.5" width="100" height="100" as="geometry">
            <mxPoint x="-23" y="235.5" as="sourcePoint" />
            <mxPoint x="77" y="135.5" as="targetPoint" />
            <Array as="points">
              <mxPoint x="1590" y="340" />
              <mxPoint x="1710" y="250" />
            </Array>
          </mxGeometry>
        </mxCell>
        <mxCell id="YhT3vDG4iD0MvoP38tkv-168" value="" style="edgeStyle=orthogonalEdgeStyle;rounded=0;orthogonalLoop=1;jettySize=auto;html=1;" edge="1" parent="1" source="YhT3vDG4iD0MvoP38tkv-134" target="YhT3vDG4iD0MvoP38tkv-167">
          <mxGeometry relative="1" as="geometry" />
        </mxCell>
        <mxCell id="YhT3vDG4iD0MvoP38tkv-134" value="ثبت نظر" style="rounded=1;fillColor=#23445D;gradientColor=none;strokeColor=none;fontColor=#FFFFFF;fontStyle=1;fontFamily=Tahoma;fontSize=14" vertex="1" parent="1">
          <mxGeometry x="1530" y="1130" width="150" height="60" as="geometry" />
        </mxCell>
        <mxCell id="YhT3vDG4iD0MvoP38tkv-155" value="" style="edgeStyle=orthogonalEdgeStyle;rounded=0;orthogonalLoop=1;jettySize=auto;html=1;" edge="1" parent="1" source="52" target="53">
          <mxGeometry relative="1" as="geometry" />
        </mxCell>
        <mxCell id="52" value="ورود و ثبت نام" style="rounded=1;fillColor=#23445D;gradientColor=none;strokeColor=none;fontColor=#FFFFFF;fontStyle=1;fontFamily=Tahoma;fontSize=14;verticalAlign=middle;" parent="1" vertex="1">
          <mxGeometry x="1530" y="400" width="153" height="65.5" as="geometry" />
        </mxCell>
        <mxCell id="YhT3vDG4iD0MvoP38tkv-170" value="" style="edgeStyle=orthogonalEdgeStyle;rounded=0;orthogonalLoop=1;jettySize=auto;html=1;" edge="1" parent="1" source="YhT3vDG4iD0MvoP38tkv-167" target="YhT3vDG4iD0MvoP38tkv-169">
          <mxGeometry relative="1" as="geometry" />
        </mxCell>
        <mxCell id="YhT3vDG4iD0MvoP38tkv-167" value="ایجاد محصولات و مقالات مورد علاقه" style="whiteSpace=wrap;fontSize=14;fontFamily=Tahoma;fillColor=#23445D;strokeColor=none;fontColor=#FFFFFF;rounded=1;gradientColor=none;fontStyle=1;html=1;" vertex="1" parent="1">
          <mxGeometry x="1531.75" y="1220" width="146.5" height="80" as="geometry" />
        </mxCell>
        <mxCell id="YhT3vDG4iD0MvoP38tkv-169" value="شارژ و استفاده از کیف پول" style="whiteSpace=wrap;html=1;fontSize=14;fontFamily=Tahoma;fillColor=#23445D;strokeColor=none;fontColor=#FFFFFF;rounded=1;gradientColor=none;fontStyle=1;" vertex="1" parent="1">
          <mxGeometry x="1530" y="1340" width="150" height="60" as="geometry" />
        </mxCell>
        <mxCell id="YhT3vDG4iD0MvoP38tkv-176" value="" style="edgeStyle=orthogonalEdgeStyle;rounded=0;orthogonalLoop=1;jettySize=auto;html=1;" edge="1" parent="1" source="YhT3vDG4iD0MvoP38tkv-173" target="YhT3vDG4iD0MvoP38tkv-175">
          <mxGeometry relative="1" as="geometry" />
        </mxCell>
        <mxCell id="YhT3vDG4iD0MvoP38tkv-173" value="مشاهده اطلاعات کاربر" style="whiteSpace=wrap;html=1;fontSize=14;fontFamily=Tahoma;fillColor=#23445D;strokeColor=none;fontColor=#FFFFFF;rounded=1;gradientColor=none;fontStyle=1;" vertex="1" parent="1">
          <mxGeometry x="1349.9999999999998" y="405.5" width="120" height="60" as="geometry" />
        </mxCell>
        <mxCell id="YhT3vDG4iD0MvoP38tkv-178" value="" style="edgeStyle=orthogonalEdgeStyle;rounded=0;orthogonalLoop=1;jettySize=auto;html=1;" edge="1" parent="1" source="YhT3vDG4iD0MvoP38tkv-175" target="YhT3vDG4iD0MvoP38tkv-177">
          <mxGeometry relative="1" as="geometry" />
        </mxCell>
        <mxCell id="YhT3vDG4iD0MvoP38tkv-175" value="مشاهده پرداخت ها&lt;br&gt;" style="whiteSpace=wrap;html=1;fontSize=14;fontFamily=Tahoma;fillColor=#23445D;strokeColor=none;fontColor=#FFFFFF;rounded=1;gradientColor=none;fontStyle=1;" vertex="1" parent="1">
          <mxGeometry x="1349.9999999999998" y="545.5" width="120" height="60" as="geometry" />
        </mxCell>
        <mxCell id="YhT3vDG4iD0MvoP38tkv-180" value="" style="edgeStyle=orthogonalEdgeStyle;rounded=0;orthogonalLoop=1;jettySize=auto;html=1;" edge="1" parent="1" source="YhT3vDG4iD0MvoP38tkv-177" target="YhT3vDG4iD0MvoP38tkv-179">
          <mxGeometry relative="1" as="geometry" />
        </mxCell>
        <mxCell id="YhT3vDG4iD0MvoP38tkv-177" value="مشاهده تیکت ها" style="whiteSpace=wrap;html=1;fontSize=14;fontFamily=Tahoma;fillColor=#23445D;strokeColor=none;fontColor=#FFFFFF;rounded=1;gradientColor=none;fontStyle=1;" vertex="1" parent="1">
          <mxGeometry x="1349.9999999999998" y="685.5" width="120" height="60" as="geometry" />
        </mxCell>
        <mxCell id="YhT3vDG4iD0MvoP38tkv-366" value="" style="edgeStyle=orthogonalEdgeStyle;rounded=0;orthogonalLoop=1;jettySize=auto;html=1;" edge="1" parent="1" source="YhT3vDG4iD0MvoP38tkv-179" target="YhT3vDG4iD0MvoP38tkv-365">
          <mxGeometry relative="1" as="geometry" />
        </mxCell>
        <mxCell id="YhT3vDG4iD0MvoP38tkv-179" value="مشاهده سفارشات" style="whiteSpace=wrap;html=1;fontSize=14;fontFamily=Tahoma;fillColor=#23445D;strokeColor=none;fontColor=#FFFFFF;rounded=1;gradientColor=none;fontStyle=1;" vertex="1" parent="1">
          <mxGeometry x="1349.9999999999998" y="825.5" width="120" height="60" as="geometry" />
        </mxCell>
        <mxCell id="YhT3vDG4iD0MvoP38tkv-368" value="" style="edgeStyle=orthogonalEdgeStyle;rounded=0;orthogonalLoop=1;jettySize=auto;html=1;" edge="1" parent="1" source="YhT3vDG4iD0MvoP38tkv-365" target="YhT3vDG4iD0MvoP38tkv-367">
          <mxGeometry relative="1" as="geometry" />
        </mxCell>
        <mxCell id="YhT3vDG4iD0MvoP38tkv-365" value="مشاهده ادرس ها&lt;br&gt;" style="whiteSpace=wrap;html=1;fontSize=14;fontFamily=Tahoma;fillColor=#23445D;strokeColor=none;fontColor=#FFFFFF;rounded=1;gradientColor=none;fontStyle=1;" vertex="1" parent="1">
          <mxGeometry x="1349.9999999999998" y="965.5" width="120" height="60" as="geometry" />
        </mxCell>
        <mxCell id="YhT3vDG4iD0MvoP38tkv-370" value="" style="edgeStyle=orthogonalEdgeStyle;rounded=0;orthogonalLoop=1;jettySize=auto;html=1;" edge="1" parent="1" source="YhT3vDG4iD0MvoP38tkv-367" target="YhT3vDG4iD0MvoP38tkv-369">
          <mxGeometry relative="1" as="geometry" />
        </mxCell>
        <mxCell id="YhT3vDG4iD0MvoP38tkv-367" value="مشاهده اعلان ها کاربر" style="whiteSpace=wrap;html=1;fontSize=14;fontFamily=Tahoma;fillColor=#23445D;strokeColor=none;fontColor=#FFFFFF;rounded=1;gradientColor=none;fontStyle=1;" vertex="1" parent="1">
          <mxGeometry x="1349.9999999999998" y="1105.5" width="120" height="60" as="geometry" />
        </mxCell>
        <mxCell id="YhT3vDG4iD0MvoP38tkv-369" value="مشاهده تراکنش های کیف پول" style="whiteSpace=wrap;html=1;fontSize=14;fontFamily=Tahoma;fillColor=#23445D;strokeColor=none;fontColor=#FFFFFF;rounded=1;gradientColor=none;fontStyle=1;" vertex="1" parent="1">
          <mxGeometry x="1349.9999999999998" y="1245.5" width="120" height="60" as="geometry" />
        </mxCell>
        <mxCell id="YhT3vDG4iD0MvoP38tkv-381" value="دسترسی به تمام محتوا پنل مدیریت محتوا بدون محدودیت" style="whiteSpace=wrap;html=1;fontSize=14;fontFamily=Tahoma;fillColor=#23445D;strokeColor=none;fontColor=#FFFFFF;rounded=1;gradientColor=none;fontStyle=1;" vertex="1" parent="1">
          <mxGeometry x="755" y="360" width="200" height="80" as="geometry" />
        </mxCell>
        <mxCell id="YhT3vDG4iD0MvoP38tkv-384" value="دسترسی به تمام محتوا پنل مدیریت&amp;nbsp;&lt;br&gt;+&amp;nbsp;&lt;br&gt;دسترسی به ماژول توسعه دهنده که نقش کانفیگ کلی سیستم را دارد&lt;br&gt;" style="whiteSpace=wrap;html=1;fontSize=14;fontFamily=Tahoma;fillColor=#23445D;strokeColor=none;fontColor=#FFFFFF;rounded=1;gradientColor=none;fontStyle=1;" vertex="1" parent="1">
          <mxGeometry x="370" y="350" width="210" height="180" as="geometry" />
        </mxCell>
      </root>
    </mxGraphModel>
  </diagram>
</mxfile>
